# xmcd
#
# Track frame offsets: 
#        150
#        9189
#        30474
#        46563
#        60981
#        78797
#        98014
#        133454
#        144804
#        169471
#        185039
#        198601
#
# Disc length: 2822 seconds
#
# Revision: 0
# Processed by: cddbd v1.5.2PL0 Copyright (c) Steve Scherf et al.
# Submitted via: ExactAudioCopy v0.99pb5
#
DISCID=930b040c
DTITLE=Jean-Louis Aubert - Un Tour Sur Moi-Même [CD3]
DYEAR=2008
DGENRE=Acoustic
TTITLE0=Intro
TTITLE1=Tu vas me manquer
TTITLE2=Les Ils et les ons
TTITLE3=Fait Divers
TTITLE4=Platre et Ciment
TTITLE5=Les gens disent que
TTITLE6=Metro (c'est trop)
TTITLE7=Hygiaphone
TTITLE8=Laisser tomber
TTITLE9=Veille sur moi
TTITLE10=La suite
TTITLE11=Les petits riens
EXTD=
EXTT0=
EXTT1=
EXTT2=
EXTT3=
EXTT4=
EXTT5=
EXTT6=
EXTT7=
EXTT8=
EXTT9=
EXTT10=
EXTT11=
PLAYORDER=
